<?xml version="1.0" encoding="UTF-8" standalone="no"?>
<svg
   xmlns:dc="http://purl.org/dc/elements/1.1/"
   xmlns:cc="http://creativecommons.org/ns#"
   xmlns:rdf="http://www.w3.org/1999/02/22-rdf-syntax-ns#"
   xmlns:svg="http://www.w3.org/2000/svg"
   xmlns="http://www.w3.org/2000/svg"
   id="svg67"
   version="1.1"
   viewBox="0 0 13.67565 13.64235"
   height="13.64235mm"
   width="13.67565mm">
  <defs
     id="defs61" />
  <metadata
     id="metadata64">
    <rdf:RDF>
      <cc:Work
         rdf:about="">
        <dc:format>image/svg+xml</dc:format>
        <dc:type
           rdf:resource="http://purl.org/dc/dcmitype/StillImage" />
        <dc:title></dc:title>
      </cc:Work>
    </rdf:RDF>
  </metadata>
  <g
     transform="translate(-139.81694,-181.41097)"
     id="layer1">
    <path
       style="color:#000000;font-style:normal;font-variant:normal;font-weight:normal;font-stretch:normal;font-size:medium;line-height:normal;font-family:Sans;-inkscape-font-specification:Sans;text-indent:0;text-align:start;text-decoration:none;text-decoration-line:none;letter-spacing:normal;word-spacing:normal;text-transform:none;writing-mode:lr-tb;direction:ltr;baseline-shift:baseline;text-anchor:start;display:inline;overflow:visible;visibility:visible;fill:#1a1a1a;fill-opacity:1;stroke:none;stroke-width:9.89542;marker:none;enable-background:accumulate"
       d="m 143.77521,181.41097 c -2.18301,0 -3.95827,1.77624 -3.95827,3.95926 v 5.72481 c 0,2.18302 1.77526,3.95828 3.95827,3.95828 h 5.7591 c 2.18302,0 3.95828,-1.77526 3.95828,-3.95828 v -5.72481 c 0,-2.18302 -1.77526,-3.95926 -3.95828,-3.95926 z m 0,1.1728 h 5.7591 c 1.55369,0 2.78647,1.23279 2.78647,2.78646 v 5.72481 c 0,1.55368 -1.23278,2.78549 -2.78647,2.78549 h -5.7591 c -1.55368,0 -2.78549,-1.23181 -2.78549,-2.78549 v -5.72481 c 0,-1.55367 1.23181,-2.78646 2.78549,-2.78646 z m 6.54978,1.17278 c -0.45303,0 -0.82007,0.36704 -0.82007,0.82006 0,0.45304 0.36704,0.82008 0.82007,0.82008 0.45302,0 0.82007,-0.36704 0.82007,-0.82008 0,-0.45302 -0.36705,-0.82006 -0.82007,-0.82006 z m -3.67023,0.96311 c -1.93306,0 -3.51248,1.57942 -3.51248,3.51249 0,1.93306 1.57942,3.51248 3.51248,3.51248 1.93307,0 3.51346,-1.57942 3.51346,-3.51248 0,-1.93307 -1.58039,-3.51249 -3.51346,-3.51249 z m 0,1.17279 c 1.29935,0 2.34068,1.04035 2.34068,2.3397 0,1.29935 -1.04133,2.33969 -2.34068,2.33969 -1.29935,0 -2.33969,-1.04034 -2.33969,-2.33969 0,-1.29935 1.04034,-2.3397 2.33969,-2.3397 z"
       id="rect3687" />
  </g>
</svg>
